<svg width="610" height="98" viewBox="0 0 610 98" fill="none" xmlns="http://www.w3.org/2000/svg">
<path d="M24.9375 38.75C26.5208 38.75 28.1875 38.4792 29.9375 37.9375C31.6875 37.3542 33.4167 36.5833 35.125 35.625C36.875 34.625 38.5208 33.4583 40.0625 32.125C41.6458 30.75 43.0208 29.2708 44.1875 27.6875C45.3958 26.0625 46.3542 24.375 47.0625 22.625C47.7708 20.8333 48.125 19.0417 48.125 17.25C48.125 16.5 47.9792 15.7083 47.6875 14.875C47.4375 14.0417 47 13.2708 46.375 12.5625C45.7917 11.8542 45 11.2708 44 10.8125C43 10.3125 41.7708 10.0625 40.3125 10.0625C37.4792 10.0625 34.7708 10.7292 32.1875 12.0625C29.6458 13.3958 27.2708 15.2083 25.0625 17.5C22.8542 19.7917 20.8333 22.4792 19 25.5625C17.2083 28.6042 15.6667 31.8542 14.375 35.3125C13.125 38.7708 12.1458 42.3333 11.4375 46C10.7708 49.6667 10.4375 53.2292 10.4375 56.6875C10.4375 60.6458 10.7917 64.5 11.5 68.25C12.2083 71.9583 13.3333 75.25 14.875 78.125C16.4583 81 18.5208 83.3125 21.0625 85.0625C23.6042 86.7708 26.7292 87.625 30.4375 87.625C33.1458 87.625 35.5833 87.2292 37.75 86.4375C39.9167 85.6458 41.7708 84.7917 43.3125 83.875C44.8542 82.9167 46.0417 82.0417 46.875 81.25C47.7083 80.4167 48.1667 79.9792 48.25 79.9375C48.7917 79.0208 49.3958 78.4792 50.0625 78.3125C50.7708 78.1458 51.4375 78.2292 52.0625 78.5625C52.7292 78.8958 53.3333 79.4167 53.875 80.125C54.4167 80.7917 54.8333 81.5208 55.125 82.3125C55.4583 83.1042 55.6042 83.8958 55.5625 84.6875C55.5208 85.4792 55.25 86.125 54.75 86.625C54.6667 86.7083 54.3542 87.0208 53.8125 87.5625C53.2708 88.1042 52.5 88.7708 51.5 89.5625C50.5 90.3542 49.2708 91.1875 47.8125 92.0625C46.3542 92.9792 44.7083 93.8125 42.875 94.5625C41.0417 95.3542 39 96 36.75 96.5C34.5417 97 32.1458 97.25 29.5625 97.25C24.9792 97.25 20.875 96.2917 17.25 94.375C13.625 92.4583 10.5417 89.75 8 86.25C5.5 82.7083 3.58333 78.4375 2.25 73.4375C0.916667 68.4375 0.25 62.8542 0.25 56.6875C0.25 52.5208 0.6875 48.25 1.5625 43.875C2.4375 39.5 3.70833 35.25 5.375 31.125C7.08333 26.9583 9.14583 23.0417 11.5625 19.375C13.9792 15.6667 16.7292 12.4375 19.8125 9.6875C22.8958 6.9375 26.2917 4.77083 30 3.1875C33.7083 1.5625 37.6875 0.75 41.9375 0.75C44.2292 0.75 46.375 1.10417 48.375 1.8125C50.375 2.52083 52.0833 3.58333 53.5 5C54.9583 6.41667 56.1042 8.1875 56.9375 10.3125C57.7708 12.3958 58.1875 14.8333 58.1875 17.625C58.1875 20.25 57.6667 22.8125 56.625 25.3125C55.625 27.8125 54.2708 30.1875 52.5625 32.4375C50.8542 34.6458 48.8542 36.6875 46.5625 38.5625C44.3125 40.4375 41.9167 42.0625 39.375 43.4375C36.875 44.7708 34.3333 45.8125 31.75 46.5625C29.1667 47.3125 26.6875 47.6875 24.3125 47.6875C22.7292 47.6875 21.375 47.2083 20.25 46.25C19.1667 45.25 18.625 43.6875 18.625 41.5625C18.625 41.1042 18.6458 40.6458 18.6875 40.1875C18.7708 39.6875 18.875 39.25 19 38.875C19.125 38.4583 19.2708 38.125 19.4375 37.875C19.6458 37.625 19.8542 37.5 20.0625 37.5C20.2708 37.5 20.4583 37.5625 20.625 37.6875C20.8333 37.8125 21.0833 37.9583 21.375 38.125C21.7083 38.2917 22.1458 38.4375 22.6875 38.5625C23.2292 38.6875 23.9792 38.75 24.9375 38.75ZM99.1875 87.125C100.479 87.125 101.583 86.6667 102.5 85.75C103.458 84.8333 104.271 83.6875 104.938 82.3125C105.646 80.9375 106.208 79.4583 106.625 77.875C107.083 76.25 107.458 74.7292 107.75 73.3125C108.042 71.9792 108.458 71.0208 109 70.4375C109.583 69.8125 110.208 69.5 110.875 69.5C111.375 69.5 111.875 69.6667 112.375 70C112.917 70.2917 113.396 70.6875 113.812 71.1875C114.271 71.6875 114.625 72.25 114.875 72.875C115.167 73.5 115.312 74.125 115.312 74.75C115.312 74.8333 115.312 74.9375 115.312 75.0625C115.312 75.1875 115.271 75.375 115.188 75.625C114.646 77.75 113.896 79.9792 112.938 82.3125C112.021 84.6458 110.833 86.7917 109.375 88.75C107.917 90.7083 106.146 92.3333 104.062 93.625C102.021 94.9167 99.625 95.5625 96.875 95.5625C94.625 95.5625 92.6667 95.0833 91 94.125C89.3333 93.1667 88.0208 91.8958 87.0625 90.3125C85.7708 91.7708 84.2083 93 82.375 94C80.5833 95.0417 78.4792 95.5625 76.0625 95.5625C73.5625 95.5625 71.3542 95.0625 69.4375 94.0625C67.5625 93.0625 65.9792 91.7083 64.6875 90C63.3958 88.25 62.4167 86.2083 61.75 83.875C61.125 81.5 60.8125 78.9583 60.8125 76.25C60.8125 70.9167 61.6667 66.125 63.375 61.875C65.0833 57.625 67.3542 54.0208 70.1875 51.0625C73.0208 48.0625 76.25 45.7708 79.875 44.1875C83.5417 42.6042 87.3333 41.8125 91.25 41.8125C93 41.8125 94.4167 42.2917 95.5 43.25C96.5833 44.2083 97.125 45.5208 97.125 47.1875C97.125 48.2708 97 49.0417 96.75 49.5C96.5417 49.9167 96.125 50.125 95.5 50.125C94.9167 50.125 94.3125 50.0833 93.6875 50C93.0625 49.9167 92.4167 49.875 91.75 49.875C89.3333 49.875 86.875 50.4167 84.375 51.5C81.875 52.5417 79.6042 54.1667 77.5625 56.375C75.5625 58.5417 73.9167 61.3125 72.625 64.6875C71.3333 68.0208 70.6875 72 70.6875 76.625C70.6875 80 71.3333 82.6042 72.625 84.4375C73.9167 86.2292 75.6875 87.125 77.9375 87.125C79.6875 87.125 81.1458 86.4792 82.3125 85.1875C83.4792 83.8542 84.4167 82.2917 85.125 80.5V60.75C85.125 60.125 85.0833 59.6042 85 59.1875C84.9583 58.7708 84.8958 58.4167 84.8125 58.125C84.7708 57.8333 84.7292 57.5833 84.6875 57.375C84.6458 57.125 84.625 56.8958 84.625 56.6875C84.625 56.0208 84.9375 55.5 85.5625 55.125C86.2292 54.7083 87.0208 54.5 87.9375 54.5C90.0625 54.5 91.75 55.0625 93 56.1875C94.25 57.2708 94.875 58.5833 94.875 60.125V81.25C94.875 81.9583 94.9583 82.6667 95.125 83.375C95.2917 84.0417 95.5417 84.6667 95.875 85.25C96.2083 85.7917 96.6458 86.25 97.1875 86.625C97.7708 86.9583 98.4375 87.125 99.1875 87.125ZM136.25 95.5625C134.75 95.5625 133.208 95.3333 131.625 94.875C130.083 94.4167 128.667 93.625 127.375 92.5C126.125 91.375 125.083 89.8958 124.25 88.0625C123.458 86.1875 123.062 83.8333 123.062 81C123.062 76.875 123.604 72.5208 124.688 67.9375C125.812 63.3125 127.417 58.2292 129.5 52.6875H119.75H118.312C118.271 53.9375 118.188 55.5208 118.062 57.4375C117.979 59.3542 117.812 61.3958 117.562 63.5625C117.312 65.7292 116.979 67.9167 116.562 70.125C116.188 72.3333 115.708 74.375 115.125 76.25C114.708 77.5833 114.042 78.3542 113.125 78.5625C112.25 78.7708 111.375 78.625 110.5 78.125C109.625 77.5833 108.917 76.8125 108.375 75.8125C107.833 74.8125 107.708 73.7708 108 72.6875C108.333 71.3958 108.625 69.8333 108.875 68C109.125 66.125 109.312 64.1667 109.438 62.125C109.604 60.0417 109.729 57.9792 109.812 55.9375C109.896 53.8542 109.958 52 110 50.375C108.417 49.5 107.104 48.3958 106.062 47.0625C105.021 45.6875 104.5 44.0625 104.5 42.1875C104.5 41.3125 104.667 40.5208 105 39.8125C105.375 39.0625 105.854 38.4375 106.438 37.9375C107.021 37.3958 107.708 37 108.5 36.75C109.292 36.4583 110.104 36.3125 110.938 36.3125C111.688 36.3125 112.458 36.4167 113.25 36.625C114.083 36.8333 114.854 37.2083 115.562 37.75C116.312 38.2917 116.979 39 117.562 39.875C118.146 40.75 118.625 41.8333 119 43.125C120.042 43.25 120.917 43.3542 121.625 43.4375C122.375 43.4792 123 43.5208 123.5 43.5625C124 43.6042 124.417 43.625 124.75 43.625C125.083 43.625 125.417 43.625 125.75 43.625H132.438C132.812 43.625 133.354 43.8542 134.062 44.3125C134.812 44.7708 135.542 45.375 136.25 46.125C136.958 46.8333 137.542 47.6042 138 48.4375C138.5 49.2708 138.688 50.0625 138.562 50.8125C138.562 51.0625 138.417 51.6667 138.125 52.625C137.833 53.5833 137.479 54.7917 137.062 56.25C136.646 57.7083 136.188 59.3958 135.688 61.3125C135.188 63.1875 134.729 65.1667 134.312 67.25C133.896 69.3333 133.542 71.5 133.25 73.75C132.958 75.9583 132.812 78.125 132.812 80.25C132.812 81.125 132.917 81.9792 133.125 82.8125C133.333 83.6458 133.646 84.3958 134.062 85.0625C134.479 85.6875 135 86.1875 135.625 86.5625C136.292 86.9375 137.062 87.125 137.938 87.125C139.396 87.125 140.646 86.6667 141.688 85.75C142.729 84.8333 143.604 83.6875 144.312 82.3125C145.021 80.9375 145.583 79.4583 146 77.875C146.458 76.25 146.833 74.7292 147.125 73.3125C147.375 71.9792 147.792 71.0208 148.375 70.4375C148.958 69.8125 149.562 69.5 150.188 69.5C150.688 69.5 151.208 69.6667 151.75 70C152.292 70.2917 152.771 70.6875 153.188 71.1875C153.646 71.6875 154 72.25 154.25 72.875C154.542 73.5 154.688 74.125 154.688 74.75C154.688 74.9583 154.667 75.125 154.625 75.25C154.583 75.375 154.562 75.5 154.562 75.625C153.979 77.75 153.208 79.9792 152.25 82.3125C151.333 84.6458 150.146 86.7917 148.688 88.75C147.229 90.7083 145.479 92.3333 143.438 93.625C141.396 94.9167 139 95.5625 136.25 95.5625ZM177.188 54.75C177.188 57.125 176.771 59.5625 175.938 62.0625C175.146 64.5625 173.938 66.9375 172.312 69.1875C170.729 71.3958 168.75 73.3958 166.375 75.1875C164.042 76.9375 161.333 78.2708 158.25 79.1875C158.667 80.2708 159.208 81.3125 159.875 82.3125C160.583 83.2708 161.417 84.1042 162.375 84.8125C163.333 85.5208 164.438 86.0833 165.688 86.5C166.979 86.9167 168.458 87.125 170.125 87.125C172.625 87.125 174.771 86.6667 176.562 85.75C178.354 84.7917 179.854 83.5417 181.062 82C182.312 80.4583 183.312 78.7292 184.062 76.8125C184.812 74.8958 185.375 72.9583 185.75 71C186.042 69.5833 186.625 68.6458 187.5 68.1875C188.417 67.6875 189.333 67.5625 190.25 67.8125C191.208 68.0625 192.021 68.6042 192.688 69.4375C193.396 70.2292 193.688 71.1875 193.562 72.3125C193.396 73.6042 193.104 75.0833 192.688 76.75C192.312 78.4167 191.729 80.1042 190.938 81.8125C190.146 83.5208 189.125 85.2083 187.875 86.875C186.667 88.5 185.167 89.9583 183.375 91.25C181.583 92.5417 179.479 93.5833 177.062 94.375C174.646 95.1667 171.875 95.5625 168.75 95.5625C165.833 95.5625 163 94.9792 160.25 93.8125C157.542 92.6875 155.125 91.0625 153 88.9375C150.917 86.7708 149.229 84.125 147.938 81C146.688 77.8333 146.062 74.25 146.062 70.25C146.062 66.2083 146.625 62.4583 147.75 59C148.875 55.5 150.354 52.4792 152.188 49.9375C154.021 47.3958 156.104 45.4167 158.438 44C160.771 42.5417 163.167 41.8125 165.625 41.8125C167.417 41.8125 169.021 42.125 170.438 42.75C171.896 43.375 173.125 44.2708 174.125 45.4375C175.125 46.5625 175.875 47.9167 176.375 49.5C176.917 51.0833 177.188 52.8333 177.188 54.75ZM156.562 69.875C156.562 70.25 156.583 70.625 156.625 71C156.667 71.375 156.688 71.7708 156.688 72.1875C158.271 71.4375 159.708 70.4792 161 69.3125C162.292 68.1458 163.396 66.8125 164.312 65.3125C165.229 63.8125 165.938 62.1875 166.438 60.4375C166.938 58.6458 167.188 56.7917 167.188 54.875C167.188 53.4583 166.938 52.3542 166.438 51.5625C165.979 50.7708 165.333 50.375 164.5 50.375C163.458 50.375 162.521 50.7292 161.688 51.4375C160.896 52.1458 160.188 53.0833 159.562 54.25C158.979 55.375 158.479 56.6667 158.062 58.125C157.688 59.5417 157.375 60.9792 157.125 62.4375C156.875 63.8958 156.708 65.2917 156.625 66.625C156.542 67.9167 156.521 69 156.562 69.875ZM193 74.4375C192.667 75.7708 192.042 76.6042 191.125 76.9375C190.208 77.2292 189.292 77.1875 188.375 76.8125C187.5 76.4375 186.75 75.7917 186.125 74.875C185.542 73.9583 185.375 72.9583 185.625 71.875C186.25 69.0417 187.146 65.9167 188.312 62.5C189.521 59.0417 190.708 55.6042 191.875 52.1875C191.25 51.2292 190.75 50.2708 190.375 49.3125C190 48.3125 189.812 47.2708 189.812 46.1875C189.812 45.1042 190.208 43.9792 191 42.8125C191.833 41.6042 192.812 40.5 193.938 39.5C195.104 38.5 196.292 37.6875 197.5 37.0625C198.75 36.3958 199.812 36.0625 200.688 36.0625C202.229 36.0625 203.375 36.5833 204.125 37.625C204.917 38.6667 205.312 40.0625 205.312 41.8125C205.312 42.7708 205.146 43.7292 204.812 44.6875C204.521 45.6042 204.188 46.4792 203.812 47.3125C203.438 48.1042 203.083 48.7917 202.75 49.375C202.458 49.9583 202.292 50.3333 202.25 50.5C203.75 53.1667 205.312 55.5208 206.938 57.5625C208.562 59.6042 210.042 61.625 211.375 63.625C212.75 65.625 213.875 67.75 214.75 70C215.625 72.25 216.062 74.8958 216.062 77.9375C216.062 78.6875 216 79.4583 215.875 80.25C215.792 81.0417 215.646 81.7917 215.438 82.5C216.938 82.2083 218.25 81.75 219.375 81.125C220.542 80.5 221.542 79.7917 222.375 79C223.25 78.1667 223.958 77.2708 224.5 76.3125C225.083 75.3542 225.562 74.3542 225.938 73.3125C226.396 72.1042 226.854 71.2292 227.312 70.6875C227.771 70.1458 228.292 69.875 228.875 69.875C229.417 69.875 229.958 70.0625 230.5 70.4375C231.083 70.7708 231.583 71.2083 232 71.75C232.458 72.2917 232.812 72.8542 233.062 73.4375C233.354 74.0208 233.5 74.5417 233.5 75C233.5 75.625 233.333 76.375 233 77.25C232.667 78.125 232.208 79.0208 231.625 79.9375C231.083 80.8542 230.458 81.75 229.75 82.625C229.042 83.4583 228.312 84.1875 227.562 84.8125C225.562 86.4375 223.208 87.8125 220.5 88.9375C217.792 90.0208 214.438 90.7083 210.438 91C208.896 92.3333 207.062 93.4167 204.938 94.25C202.854 95.125 200.5 95.5625 197.875 95.5625C196.542 95.5625 195.167 95.3958 193.75 95.0625C192.375 94.7292 191.042 94.2917 189.75 93.75C188.5 93.25 187.354 92.6875 186.312 92.0625C185.271 91.4375 184.438 90.8125 183.812 90.1875C182.229 88.6875 181.208 87.1875 180.75 85.6875C180.292 84.1458 180.188 82.7708 180.438 81.5625C180.646 80.3542 181.083 79.375 181.75 78.625C182.417 77.8333 183.104 77.4375 183.812 77.4375C184.229 77.4375 184.875 77.625 185.75 78C186.667 78.3333 187.708 78.7917 188.875 79.375C190.042 79.9167 191.312 80.5 192.688 81.125C194.062 81.75 195.438 82.3542 196.812 82.9375C198.188 83.4792 199.521 83.9375 200.812 84.3125C202.146 84.6458 203.354 84.8125 204.438 84.8125C205.146 83.9792 205.792 82.875 206.375 81.5C206.958 80.125 207.25 78.625 207.25 77C207.25 75 206.979 73.1458 206.438 71.4375C205.896 69.7292 205.188 68.1458 204.312 66.6875C203.438 65.2292 202.438 63.875 201.312 62.625C200.229 61.3333 199.125 60.125 198 59C197 61.4583 196.125 63.8958 195.375 66.3125C194.625 68.6875 193.833 71.3958 193 74.4375ZM215.062 31.8125C216.021 31.8958 217.083 31.9583 218.25 32C219.25 32.0833 220.458 32.1458 221.875 32.1875C223.292 32.1875 224.875 32.2083 226.625 32.25V10.5625C226.625 9.64583 226.542 8.91667 226.375 8.375C226.25 7.83333 226.104 7.41667 225.938 7.125C225.812 6.79167 225.667 6.54167 225.5 6.375C225.375 6.16667 225.312 5.95833 225.312 5.75C225.312 5.5 225.438 5.29167 225.688 5.125C225.938 4.95833 226.271 4.8125 226.688 4.6875C227.104 4.5625 227.542 4.47917 228 4.4375C228.5 4.35417 228.979 4.3125 229.438 4.3125C231.562 4.3125 233.229 4.875 234.438 6C235.688 7.08333 236.312 8.39583 236.312 9.9375V32.375C240.229 32.375 244.354 32.3333 248.688 32.25C253.062 32.1667 257.438 32.0208 261.812 31.8125C262.396 31.1875 262.854 30.9583 263.188 31.125C263.562 31.2917 263.792 31.6875 263.875 32.3125C264 32.9375 264.021 33.7083 263.938 34.625C263.854 35.5417 263.688 36.4375 263.438 37.3125C263.188 38.1458 262.833 38.875 262.375 39.5C261.958 40.125 261.479 40.4375 260.938 40.4375C255.812 40.5625 251.271 40.6458 247.312 40.6875C243.396 40.6875 239.729 40.6875 236.312 40.6875V81.25C236.312 83.3333 236.708 84.8333 237.5 85.75C238.292 86.6667 239.354 87.125 240.688 87.125C241.979 87.125 243.083 86.6667 244 85.75C244.958 84.8333 245.771 83.6875 246.438 82.3125C247.146 80.9375 247.708 79.4583 248.125 77.875C248.583 76.25 248.958 74.7292 249.25 73.3125C249.5 71.9792 249.917 71.0208 250.5 70.4375C251.083 69.8125 251.688 69.5 252.312 69.5C252.812 69.5 253.333 69.6667 253.875 70C254.417 70.2917 254.896 70.6875 255.312 71.1875C255.771 71.6875 256.125 72.25 256.375 72.875C256.667 73.5 256.812 74.125 256.812 74.75C256.812 74.8333 256.812 74.9375 256.812 75.0625C256.812 75.1875 256.771 75.375 256.688 75.625C256.146 77.75 255.396 79.9792 254.438 82.3125C253.521 84.6458 252.312 86.7917 250.812 88.75C249.354 90.7083 247.604 92.3333 245.562 93.625C243.521 94.9167 241.125 95.5625 238.375 95.5625C236.667 95.5625 235.083 95.2917 233.625 94.75C232.208 94.25 230.979 93.4167 229.938 92.25C228.896 91.125 228.083 89.6667 227.5 87.875C226.917 86.0833 226.625 83.9167 226.625 81.375V40.6875C225.208 40.6875 223.938 40.6875 222.812 40.6875C221.729 40.6458 220.812 40.6042 220.062 40.5625C219.188 40.5208 218.417 40.4792 217.75 40.4375C216.75 40.4375 215.875 40 215.125 39.125C214.333 38.2083 213.792 37.2083 213.5 36.125C213.167 35.0417 213.125 34.0625 213.375 33.1875C213.583 32.2708 214.146 31.8125 215.062 31.8125ZM256.625 30.4375C255.583 30.4375 254.583 30.2292 253.625 29.8125C252.708 29.3958 251.896 28.8333 251.188 28.125C250.521 27.4167 249.979 26.6042 249.562 25.6875C249.146 24.7292 248.938 23.7083 248.938 22.625C248.938 21.5 249.146 20.4583 249.562 19.5C249.979 18.5417 250.521 17.7292 251.188 17.0625C251.896 16.3542 252.708 15.8125 253.625 15.4375C254.583 15.0208 255.583 14.8125 256.625 14.8125C257.75 14.8125 258.792 15.0208 259.75 15.4375C260.708 15.8125 261.521 16.3542 262.188 17.0625C262.896 17.7292 263.438 18.5417 263.812 19.5C264.229 20.4583 264.438 21.5 264.438 22.625C264.438 23.7083 264.229 24.7292 263.812 25.6875C263.438 26.6042 262.896 27.4167 262.188 28.125C261.521 28.8333 260.708 29.3958 259.75 29.8125C258.792 30.2292 257.75 30.4375 256.625 30.4375ZM259.562 81.25C259.562 81.5417 259.583 82.0208 259.625 82.6875C259.667 83.3125 259.792 83.9583 260 84.625C260.208 85.2917 260.542 85.875 261 86.375C261.458 86.875 262.104 87.125 262.938 87.125C264.188 87.125 265.271 86.6667 266.188 85.75C267.146 84.8333 267.958 83.6875 268.625 82.3125C269.333 80.9375 269.917 79.4583 270.375 77.875C270.833 76.25 271.208 74.7292 271.5 73.3125C271.75 72.0208 272.125 71.0833 272.625 70.5C273.167 69.9167 273.729 69.6042 274.312 69.5625C274.938 69.4792 275.542 69.625 276.125 70C276.75 70.375 277.292 70.875 277.75 71.5C278.25 72.0833 278.604 72.75 278.812 73.5C279.062 74.25 279.104 74.9583 278.938 75.625C278.354 77.75 277.583 79.9792 276.625 82.3125C275.708 84.6458 274.521 86.7917 273.062 88.75C271.604 90.7083 269.854 92.3333 267.812 93.625C265.771 94.9167 263.375 95.5625 260.625 95.5625C258.917 95.5625 257.396 95.2292 256.062 94.5625C254.729 93.9375 253.604 93.0833 252.688 92C251.771 90.9167 251.062 89.6458 250.562 88.1875C250.104 86.7292 249.875 85.1875 249.875 83.5625V49.375C249.875 48.1667 249.771 47.2917 249.562 46.75C249.396 46.2083 249.312 45.7083 249.312 45.25C249.312 44.625 249.646 44.125 250.312 43.75C250.979 43.3333 251.771 43.125 252.688 43.125C254.812 43.125 256.479 43.6875 257.688 44.8125C258.938 45.8958 259.562 47.2083 259.562 48.75V81.25ZM308.188 87.125C309.479 87.125 310.583 86.6667 311.5 85.75C312.458 84.8333 313.271 83.6875 313.938 82.3125C314.646 80.9375 315.208 79.4583 315.625 77.875C316.083 76.25 316.458 74.7292 316.75 73.3125C317.042 71.9792 317.458 71.0208 318 70.4375C318.583 69.8125 319.208 69.5 319.875 69.5C320.375 69.5 320.875 69.6667 321.375 70C321.917 70.2917 322.396 70.6875 322.812 71.1875C323.271 71.6875 323.625 72.25 323.875 72.875C324.167 73.5 324.312 74.125 324.312 74.75C324.312 74.8333 324.312 74.9375 324.312 75.0625C324.312 75.1875 324.271 75.375 324.188 75.625C323.646 77.75 322.896 79.9792 321.938 82.3125C321.021 84.6458 319.833 86.7917 318.375 88.75C316.917 90.7083 315.146 92.3333 313.062 93.625C311.021 94.9167 308.625 95.5625 305.875 95.5625C303.625 95.5625 301.667 95.0833 300 94.125C298.333 93.1667 297.021 91.8958 296.062 90.3125C294.771 91.7708 293.208 93 291.375 94C289.583 95.0417 287.479 95.5625 285.062 95.5625C282.562 95.5625 280.354 95.0625 278.438 94.0625C276.562 93.0625 274.979 91.7083 273.688 90C272.396 88.25 271.417 86.2083 270.75 83.875C270.125 81.5 269.812 78.9583 269.812 76.25C269.812 70.9167 270.667 66.125 272.375 61.875C274.083 57.625 276.354 54.0208 279.188 51.0625C282.021 48.0625 285.25 45.7708 288.875 44.1875C292.542 42.6042 296.333 41.8125 300.25 41.8125C302 41.8125 303.417 42.2917 304.5 43.25C305.583 44.2083 306.125 45.5208 306.125 47.1875C306.125 48.2708 306 49.0417 305.75 49.5C305.542 49.9167 305.125 50.125 304.5 50.125C303.917 50.125 303.312 50.0833 302.688 50C302.062 49.9167 301.417 49.875 300.75 49.875C298.333 49.875 295.875 50.4167 293.375 51.5C290.875 52.5417 288.604 54.1667 286.562 56.375C284.562 58.5417 282.917 61.3125 281.625 64.6875C280.333 68.0208 279.688 72 279.688 76.625C279.688 80 280.333 82.6042 281.625 84.4375C282.917 86.2292 284.688 87.125 286.938 87.125C288.688 87.125 290.146 86.4792 291.312 85.1875C292.479 83.8542 293.417 82.2917 294.125 80.5V60.75C294.125 60.125 294.083 59.6042 294 59.1875C293.958 58.7708 293.896 58.4167 293.812 58.125C293.771 57.8333 293.729 57.5833 293.688 57.375C293.646 57.125 293.625 56.8958 293.625 56.6875C293.625 56.0208 293.938 55.5 294.562 55.125C295.229 54.7083 296.021 54.5 296.938 54.5C299.062 54.5 300.75 55.0625 302 56.1875C303.25 57.2708 303.875 58.5833 303.875 60.125V81.25C303.875 81.9583 303.958 82.6667 304.125 83.375C304.292 84.0417 304.542 84.6667 304.875 85.25C305.208 85.7917 305.646 86.25 306.188 86.625C306.771 86.9583 307.438 87.125 308.188 87.125Z" fill="white"/>
<path d="M359.938 95.5625C357.438 95.5625 355.167 95.125 353.125 94.25C351.083 93.375 349.333 92.0833 347.875 90.375C346.458 88.625 345.354 86.4792 344.562 83.9375C343.812 81.3542 343.438 78.375 343.438 75C343.438 70.0833 344.125 65.7083 345.5 61.875C346.875 58 348.75 54.6875 351.125 51.9375C353.5 49.1458 356.25 46.9375 359.375 45.3125C362.5 43.6458 365.812 42.5625 369.312 42.0625V13.125C369.312 12.2083 369.229 11.4792 369.062 10.9375C368.938 10.3958 368.792 9.97917 368.625 9.6875C368.5 9.35417 368.354 9.10417 368.188 8.9375C368.062 8.72917 368 8.52083 368 8.3125C368 8.0625 368.125 7.85417 368.375 7.6875C368.625 7.52083 368.958 7.375 369.375 7.25C369.792 7.125 370.229 7.04167 370.688 7C371.188 6.91667 371.667 6.875 372.125 6.875C374.25 6.875 375.917 7.4375 377.125 8.5625C378.375 9.64583 379 10.9583 379 12.5V81.25C379 81.9583 379.083 82.6667 379.25 83.375C379.417 84.0417 379.667 84.6667 380 85.25C380.375 85.7917 380.833 86.25 381.375 86.625C381.958 86.9583 382.625 87.125 383.375 87.125C384.667 87.125 385.771 86.6667 386.688 85.75C387.646 84.8333 388.458 83.6875 389.125 82.3125C389.833 80.9375 390.396 79.4583 390.812 77.875C391.271 76.25 391.646 74.7292 391.938 73.3125C392.188 71.9792 392.604 71.0208 393.188 70.4375C393.771 69.8125 394.375 69.5 395 69.5C395.5 69.5 396.021 69.6667 396.562 70C397.104 70.2917 397.583 70.6875 398 71.1875C398.458 71.6875 398.812 72.25 399.062 72.875C399.354 73.5 399.5 74.125 399.5 74.75C399.5 74.8333 399.5 74.9375 399.5 75.0625C399.5 75.1875 399.458 75.375 399.375 75.625C398.833 77.75 398.083 79.9792 397.125 82.3125C396.208 84.6458 395 86.7917 393.5 88.75C392.042 90.7083 390.292 92.3333 388.25 93.625C386.208 94.9167 383.812 95.5625 381.062 95.5625C378.854 95.5625 376.917 95.1042 375.25 94.1875C373.583 93.2708 372.271 92.0625 371.312 90.5625C369.896 92.0208 368.25 93.2083 366.375 94.125C364.542 95.0833 362.396 95.5625 359.938 95.5625ZM361.875 87.125C363.542 87.125 364.979 86.6458 366.188 85.6875C367.438 84.7292 368.479 83.5417 369.312 82.125V50.5C367.229 50.875 365.208 51.5833 363.25 52.625C361.333 53.625 359.625 55.0417 358.125 56.875C356.667 58.7083 355.5 61.0417 354.625 63.875C353.75 66.6667 353.312 70.0625 353.312 74.0625C353.312 76.3958 353.542 78.3958 354 80.0625C354.5 81.6875 355.125 83.0208 355.875 84.0625C356.667 85.1042 357.583 85.875 358.625 86.375C359.667 86.875 360.75 87.125 361.875 87.125ZM403.75 29.9375C403.75 30.5625 403.312 31.1042 402.438 31.5625C401.562 31.9792 400.604 32.25 399.562 32.375C398.521 32.5 397.562 32.4583 396.688 32.25C395.812 32 395.354 31.5208 395.312 30.8125V8.6875C395.312 8.3125 395.25 8.02083 395.125 7.8125C395.042 7.60417 394.938 7.4375 394.812 7.3125C394.729 7.1875 394.625 7.08333 394.5 7C394.417 6.875 394.375 6.70833 394.375 6.5C394.375 6.04167 394.708 5.6875 395.375 5.4375C396.042 5.1875 396.958 5.0625 398.125 5.0625C398.708 5.0625 399.312 5.10417 399.938 5.1875C400.604 5.22917 401.208 5.33333 401.75 5.5C402.333 5.66667 402.812 5.89583 403.188 6.1875C403.562 6.47917 403.75 6.83333 403.75 7.25V29.9375ZM422.375 30.4375C421.333 30.4375 420.333 30.2292 419.375 29.8125C418.458 29.3958 417.646 28.8333 416.938 28.125C416.271 27.4167 415.729 26.6042 415.312 25.6875C414.896 24.7292 414.688 23.7083 414.688 22.625C414.688 21.5 414.896 20.4583 415.312 19.5C415.729 18.5417 416.271 17.7292 416.938 17.0625C417.646 16.3542 418.458 15.8125 419.375 15.4375C420.333 15.0208 421.333 14.8125 422.375 14.8125C423.5 14.8125 424.542 15.0208 425.5 15.4375C426.458 15.8125 427.271 16.3542 427.938 17.0625C428.646 17.7292 429.188 18.5417 429.562 19.5C429.979 20.4583 430.188 21.5 430.188 22.625C430.188 23.7083 429.979 24.7292 429.562 25.6875C429.188 26.6042 428.646 27.4167 427.938 28.125C427.271 28.8333 426.458 29.3958 425.5 29.8125C424.542 30.2292 423.5 30.4375 422.375 30.4375ZM425.312 81.25C425.312 81.5417 425.333 82.0208 425.375 82.6875C425.417 83.3125 425.542 83.9583 425.75 84.625C425.958 85.2917 426.292 85.875 426.75 86.375C427.208 86.875 427.854 87.125 428.688 87.125C429.938 87.125 431.021 86.6667 431.938 85.75C432.896 84.8333 433.708 83.6875 434.375 82.3125C435.083 80.9375 435.667 79.4583 436.125 77.875C436.583 76.25 436.958 74.7292 437.25 73.3125C437.5 72.0208 437.875 71.0833 438.375 70.5C438.917 69.9167 439.479 69.6042 440.062 69.5625C440.688 69.4792 441.292 69.625 441.875 70C442.5 70.375 443.042 70.875 443.5 71.5C444 72.0833 444.354 72.75 444.562 73.5C444.812 74.25 444.854 74.9583 444.688 75.625C444.104 77.75 443.333 79.9792 442.375 82.3125C441.458 84.6458 440.271 86.7917 438.812 88.75C437.354 90.7083 435.604 92.3333 433.562 93.625C431.521 94.9167 429.125 95.5625 426.375 95.5625C424.667 95.5625 423.146 95.2292 421.812 94.5625C420.479 93.9375 419.354 93.0833 418.438 92C417.521 90.9167 416.812 89.6458 416.312 88.1875C415.854 86.7292 415.625 85.1875 415.625 83.5625V49.375C415.625 48.1667 415.521 47.2917 415.312 46.75C415.146 46.2083 415.062 45.7083 415.062 45.25C415.062 44.625 415.396 44.125 416.062 43.75C416.729 43.3333 417.521 43.125 418.438 43.125C420.562 43.125 422.229 43.6875 423.438 44.8125C424.688 45.8958 425.312 47.2083 425.312 48.75V81.25ZM426.188 31.8125C427.146 31.8958 428.208 31.9583 429.375 32C430.375 32.0833 431.583 32.1458 433 32.1875C434.417 32.1875 436 32.2083 437.75 32.25V10.5625C437.75 9.64583 437.667 8.91667 437.5 8.375C437.375 7.83333 437.229 7.41667 437.062 7.125C436.938 6.79167 436.792 6.54167 436.625 6.375C436.5 6.16667 436.438 5.95833 436.438 5.75C436.438 5.5 436.562 5.29167 436.812 5.125C437.062 4.95833 437.396 4.8125 437.812 4.6875C438.229 4.5625 438.667 4.47917 439.125 4.4375C439.625 4.35417 440.104 4.3125 440.562 4.3125C442.688 4.3125 444.354 4.875 445.562 6C446.812 7.08333 447.438 8.39583 447.438 9.9375V32.375C451.354 32.375 455.479 32.3333 459.812 32.25C464.188 32.1667 468.562 32.0208 472.938 31.8125C473.521 31.1875 473.979 30.9583 474.312 31.125C474.688 31.2917 474.917 31.6875 475 32.3125C475.125 32.9375 475.146 33.7083 475.062 34.625C474.979 35.5417 474.812 36.4375 474.562 37.3125C474.312 38.1458 473.958 38.875 473.5 39.5C473.083 40.125 472.604 40.4375 472.062 40.4375C466.938 40.5625 462.396 40.6458 458.438 40.6875C454.521 40.6875 450.854 40.6875 447.438 40.6875V81.25C447.438 83.3333 447.833 84.8333 448.625 85.75C449.417 86.6667 450.479 87.125 451.812 87.125C453.104 87.125 454.208 86.6667 455.125 85.75C456.083 84.8333 456.896 83.6875 457.562 82.3125C458.271 80.9375 458.833 79.4583 459.25 77.875C459.708 76.25 460.083 74.7292 460.375 73.3125C460.625 71.9792 461.042 71.0208 461.625 70.4375C462.208 69.8125 462.812 69.5 463.438 69.5C463.938 69.5 464.458 69.6667 465 70C465.542 70.2917 466.021 70.6875 466.438 71.1875C466.896 71.6875 467.25 72.25 467.5 72.875C467.792 73.5 467.938 74.125 467.938 74.75C467.938 74.8333 467.938 74.9375 467.938 75.0625C467.938 75.1875 467.896 75.375 467.812 75.625C467.271 77.75 466.521 79.9792 465.562 82.3125C464.646 84.6458 463.438 86.7917 461.938 88.75C460.479 90.7083 458.729 92.3333 456.688 93.625C454.646 94.9167 452.25 95.5625 449.5 95.5625C447.792 95.5625 446.208 95.2917 444.75 94.75C443.333 94.25 442.104 93.4167 441.062 92.25C440.021 91.125 439.208 89.6667 438.625 87.875C438.042 86.0833 437.75 83.9167 437.75 81.375V40.6875C436.333 40.6875 435.062 40.6875 433.938 40.6875C432.854 40.6458 431.938 40.6042 431.188 40.5625C430.312 40.5208 429.542 40.4792 428.875 40.4375C427.875 40.4375 427 40 426.25 39.125C425.458 38.2083 424.917 37.2083 424.625 36.125C424.292 35.0417 424.25 34.0625 424.5 33.1875C424.708 32.2708 425.271 31.8125 426.188 31.8125ZM497.188 87.125C498.479 87.125 499.583 86.6667 500.5 85.75C501.458 84.8333 502.271 83.6875 502.938 82.3125C503.646 80.9375 504.208 79.4583 504.625 77.875C505.083 76.25 505.458 74.7292 505.75 73.3125C506.042 71.9792 506.458 71.0208 507 70.4375C507.583 69.8125 508.208 69.5 508.875 69.5C509.375 69.5 509.875 69.6667 510.375 70C510.917 70.2917 511.396 70.6875 511.812 71.1875C512.271 71.6875 512.625 72.25 512.875 72.875C513.167 73.5 513.312 74.125 513.312 74.75C513.312 74.8333 513.312 74.9375 513.312 75.0625C513.312 75.1875 513.271 75.375 513.188 75.625C512.646 77.75 511.896 79.9792 510.938 82.3125C510.021 84.6458 508.833 86.7917 507.375 88.75C505.917 90.7083 504.146 92.3333 502.062 93.625C500.021 94.9167 497.625 95.5625 494.875 95.5625C492.625 95.5625 490.667 95.0833 489 94.125C487.333 93.1667 486.021 91.8958 485.062 90.3125C483.771 91.7708 482.208 93 480.375 94C478.583 95.0417 476.479 95.5625 474.062 95.5625C471.562 95.5625 469.354 95.0625 467.438 94.0625C465.562 93.0625 463.979 91.7083 462.688 90C461.396 88.25 460.417 86.2083 459.75 83.875C459.125 81.5 458.812 78.9583 458.812 76.25C458.812 70.9167 459.667 66.125 461.375 61.875C463.083 57.625 465.354 54.0208 468.188 51.0625C471.021 48.0625 474.25 45.7708 477.875 44.1875C481.542 42.6042 485.333 41.8125 489.25 41.8125C491 41.8125 492.417 42.2917 493.5 43.25C494.583 44.2083 495.125 45.5208 495.125 47.1875C495.125 48.2708 495 49.0417 494.75 49.5C494.542 49.9167 494.125 50.125 493.5 50.125C492.917 50.125 492.312 50.0833 491.688 50C491.062 49.9167 490.417 49.875 489.75 49.875C487.333 49.875 484.875 50.4167 482.375 51.5C479.875 52.5417 477.604 54.1667 475.562 56.375C473.562 58.5417 471.917 61.3125 470.625 64.6875C469.333 68.0208 468.688 72 468.688 76.625C468.688 80 469.333 82.6042 470.625 84.4375C471.917 86.2292 473.688 87.125 475.938 87.125C477.688 87.125 479.146 86.4792 480.312 85.1875C481.479 83.8542 482.417 82.2917 483.125 80.5V60.75C483.125 60.125 483.083 59.6042 483 59.1875C482.958 58.7708 482.896 58.4167 482.812 58.125C482.771 57.8333 482.729 57.5833 482.688 57.375C482.646 57.125 482.625 56.8958 482.625 56.6875C482.625 56.0208 482.938 55.5 483.562 55.125C484.229 54.7083 485.021 54.5 485.938 54.5C488.062 54.5 489.75 55.0625 491 56.1875C492.25 57.2708 492.875 58.5833 492.875 60.125V81.25C492.875 81.9583 492.958 82.6667 493.125 83.375C493.292 84.0417 493.542 84.6667 493.875 85.25C494.208 85.7917 494.646 86.25 495.188 86.625C495.771 86.9583 496.438 87.125 497.188 87.125ZM516.062 54.125C516.521 53.25 516.958 52.0833 517.375 50.625C517.833 49.125 518.25 47.4792 518.625 45.6875C519.042 43.8958 519.417 42.0208 519.75 40.0625C520.083 38.1042 520.375 36.1875 520.625 34.3125C520.875 32.4375 521.062 30.6875 521.188 29.0625C521.354 27.3958 521.438 25.9792 521.438 24.8125C521.438 20.5625 521.125 17.4583 520.5 15.5C519.875 13.5 519.042 12.5 518 12.5C517.667 12.5 517.375 12.6667 517.125 13C516.875 13.3333 516.667 13.7708 516.5 14.3125C516.333 14.8125 516.208 15.375 516.125 16C516.083 16.5833 516.062 17.125 516.062 17.625V54.125ZM534.25 73.4375C534.5 72.1875 534.875 71.2917 535.375 70.75C535.917 70.1667 536.479 69.8542 537.062 69.8125C537.688 69.7292 538.312 69.875 538.938 70.25C539.562 70.5833 540.104 71.0417 540.562 71.625C541.021 72.2083 541.354 72.875 541.562 73.625C541.812 74.3333 541.854 75.0417 541.688 75.75C541.104 77.4583 540.271 79.4583 539.188 81.75C538.104 84.0417 536.729 86.2083 535.062 88.25C533.396 90.2917 531.438 92.0208 529.188 93.4375C526.938 94.8542 524.354 95.5625 521.438 95.5625C518.979 95.5625 516.812 95.1458 514.938 94.3125C513.062 93.5208 511.479 92.3958 510.188 90.9375C508.938 89.4375 507.979 87.6667 507.312 85.625C506.688 83.5417 506.375 81.2292 506.375 78.6875V20.4375C506.375 18.0625 506.667 15.875 507.25 13.875C507.875 11.8333 508.708 10.1042 509.75 8.6875C510.833 7.22917 512.083 6.10417 513.5 5.3125C514.917 4.47917 516.417 4.0625 518 4.0625C519.875 4.0625 521.458 4.41667 522.75 5.125C524.042 5.79167 525.104 6.6875 525.938 7.8125C526.771 8.9375 527.417 10.2292 527.875 11.6875C528.375 13.1458 528.729 14.6458 528.938 16.1875C529.146 17.6875 529.271 19.1875 529.312 20.6875C529.354 22.1458 529.375 23.4792 529.375 24.6875C529.375 27.8125 529.083 31.1042 528.5 34.5625C527.917 37.9792 527.167 41.3542 526.25 44.6875C525.375 48.0208 524.396 51.2292 523.312 54.3125C522.271 57.3542 521.25 60.0625 520.25 62.4375C519.292 64.8125 518.417 66.75 517.625 68.25C516.875 69.75 516.354 70.625 516.062 70.875V78.3125C516.062 80.8958 516.604 83.0208 517.688 84.6875C518.771 86.3125 520.5 87.125 522.875 87.125C524.333 87.125 525.688 86.6875 526.938 85.8125C528.229 84.8958 529.354 83.7708 530.312 82.4375C531.312 81.0625 532.146 79.5833 532.812 78C533.479 76.375 533.958 74.8542 534.25 73.4375ZM541.375 30.4375C540.333 30.4375 539.333 30.2292 538.375 29.8125C537.458 29.3958 536.646 28.8333 535.938 28.125C535.271 27.4167 534.729 26.6042 534.312 25.6875C533.896 24.7292 533.688 23.7083 533.688 22.625C533.688 21.5 533.896 20.4583 534.312 19.5C534.729 18.5417 535.271 17.7292 535.938 17.0625C536.646 16.3542 537.458 15.8125 538.375 15.4375C539.333 15.0208 540.333 14.8125 541.375 14.8125C542.5 14.8125 543.542 15.0208 544.5 15.4375C545.458 15.8125 546.271 16.3542 546.938 17.0625C547.646 17.7292 548.188 18.5417 548.562 19.5C548.979 20.4583 549.188 21.5 549.188 22.625C549.188 23.7083 548.979 24.7292 548.562 25.6875C548.188 26.6042 547.646 27.4167 546.938 28.125C546.271 28.8333 545.458 29.3958 544.5 29.8125C543.542 30.2292 542.5 30.4375 541.375 30.4375ZM544.312 81.25C544.312 81.5417 544.333 82.0208 544.375 82.6875C544.417 83.3125 544.542 83.9583 544.75 84.625C544.958 85.2917 545.292 85.875 545.75 86.375C546.208 86.875 546.854 87.125 547.688 87.125C548.938 87.125 550.021 86.6667 550.938 85.75C551.896 84.8333 552.708 83.6875 553.375 82.3125C554.083 80.9375 554.667 79.4583 555.125 77.875C555.583 76.25 555.958 74.7292 556.25 73.3125C556.5 72.0208 556.875 71.0833 557.375 70.5C557.917 69.9167 558.479 69.6042 559.062 69.5625C559.688 69.4792 560.292 69.625 560.875 70C561.5 70.375 562.042 70.875 562.5 71.5C563 72.0833 563.354 72.75 563.562 73.5C563.812 74.25 563.854 74.9583 563.688 75.625C563.104 77.75 562.333 79.9792 561.375 82.3125C560.458 84.6458 559.271 86.7917 557.812 88.75C556.354 90.7083 554.604 92.3333 552.562 93.625C550.521 94.9167 548.125 95.5625 545.375 95.5625C543.667 95.5625 542.146 95.2292 540.812 94.5625C539.479 93.9375 538.354 93.0833 537.438 92C536.521 90.9167 535.812 89.6458 535.312 88.1875C534.854 86.7292 534.625 85.1875 534.625 83.5625V49.375C534.625 48.1667 534.521 47.2917 534.312 46.75C534.146 46.2083 534.062 45.7083 534.062 45.25C534.062 44.625 534.396 44.125 535.062 43.75C535.729 43.3333 536.521 43.125 537.438 43.125C539.562 43.125 541.229 43.6875 542.438 44.8125C543.688 45.8958 544.312 47.2083 544.312 48.75V81.25ZM592.938 87.125C594.229 87.125 595.333 86.6667 596.25 85.75C597.208 84.8333 598.021 83.6875 598.688 82.3125C599.396 80.9375 599.958 79.4583 600.375 77.875C600.833 76.25 601.208 74.7292 601.5 73.3125C601.792 71.9792 602.208 71.0208 602.75 70.4375C603.333 69.8125 603.958 69.5 604.625 69.5C605.125 69.5 605.625 69.6667 606.125 70C606.667 70.2917 607.146 70.6875 607.562 71.1875C608.021 71.6875 608.375 72.25 608.625 72.875C608.917 73.5 609.062 74.125 609.062 74.75C609.062 74.8333 609.062 74.9375 609.062 75.0625C609.062 75.1875 609.021 75.375 608.938 75.625C608.396 77.75 607.646 79.9792 606.688 82.3125C605.771 84.6458 604.583 86.7917 603.125 88.75C601.667 90.7083 599.896 92.3333 597.812 93.625C595.771 94.9167 593.375 95.5625 590.625 95.5625C588.375 95.5625 586.417 95.0833 584.75 94.125C583.083 93.1667 581.771 91.8958 580.812 90.3125C579.521 91.7708 577.958 93 576.125 94C574.333 95.0417 572.229 95.5625 569.812 95.5625C567.312 95.5625 565.104 95.0625 563.188 94.0625C561.312 93.0625 559.729 91.7083 558.438 90C557.146 88.25 556.167 86.2083 555.5 83.875C554.875 81.5 554.562 78.9583 554.562 76.25C554.562 70.9167 555.417 66.125 557.125 61.875C558.833 57.625 561.104 54.0208 563.938 51.0625C566.771 48.0625 570 45.7708 573.625 44.1875C577.292 42.6042 581.083 41.8125 585 41.8125C586.75 41.8125 588.167 42.2917 589.25 43.25C590.333 44.2083 590.875 45.5208 590.875 47.1875C590.875 48.2708 590.75 49.0417 590.5 49.5C590.292 49.9167 589.875 50.125 589.25 50.125C588.667 50.125 588.062 50.0833 587.438 50C586.812 49.9167 586.167 49.875 585.5 49.875C583.083 49.875 580.625 50.4167 578.125 51.5C575.625 52.5417 573.354 54.1667 571.312 56.375C569.312 58.5417 567.667 61.3125 566.375 64.6875C565.083 68.0208 564.438 72 564.438 76.625C564.438 80 565.083 82.6042 566.375 84.4375C567.667 86.2292 569.438 87.125 571.688 87.125C573.438 87.125 574.896 86.4792 576.062 85.1875C577.229 83.8542 578.167 82.2917 578.875 80.5V60.75C578.875 60.125 578.833 59.6042 578.75 59.1875C578.708 58.7708 578.646 58.4167 578.562 58.125C578.521 57.8333 578.479 57.5833 578.438 57.375C578.396 57.125 578.375 56.8958 578.375 56.6875C578.375 56.0208 578.688 55.5 579.312 55.125C579.979 54.7083 580.771 54.5 581.688 54.5C583.812 54.5 585.5 55.0625 586.75 56.1875C588 57.2708 588.625 58.5833 588.625 60.125V81.25C588.625 81.9583 588.708 82.6667 588.875 83.375C589.042 84.0417 589.292 84.6667 589.625 85.25C589.958 85.7917 590.396 86.25 590.938 86.625C591.521 86.9583 592.188 87.125 592.938 87.125Z" fill="#FFE492"/>
</svg>
